      <svg
        viewBox="2 2 20 20"
        width="100%"
        height="100%"
        fill="black"
        xmlns="http://www.w3.org/2000/svg"
      >
        <path fill="black" d="m10.5 4.3 1.5-1.2 1.5 1.2h1.3l-2.8-2.3-2.8 2.3m1.9 3c-.2.1-.3.1-.4.2s-.2.2-.2.3-.1.3-.1.4c0 .2 0 .3.1.4s.1.2.2.3.2.2.3.2.3.1.5.1h.1v-2.1c-.2.1-.4.2-.5.2zm1.5 2.9-.3-.1v2.3c.1 0 .3 0 .4-.1.2 0 .4-.1.5-.2s.2-.2.3-.4c.1-.1.1-.3.1-.5 0-.3-.1-.5-.3-.6 0-.1-.3-.3-.7-.4z" />
        <path fill="black" d="m10.3 15.5 1.7-1.1 1.7 1.1 4.2-3v-7.4h-11.7v7.4zm1.3-5.5h-.2c-.2 0-.4-.1-.6-.2s-.4-.2-.5-.3c-.2-.1-.4-.3-.5-.5s-.1-.4-.1-.7v-.4c0-.2.1-.4.3-.6.1-.2.4-.4.6-.5s.5-.2.9-.3v-.4h.7v.4c.5 0 1 .2 1.3.5.4.3.6.9.7 1.6v.2h-.7v-.2c0-.5-.2-.8-.4-1s-.5-.3-.8-.3v2.2l.5.1c.3.1.6.2.8.3s.4.2.5.4.2.3.3.5.1.4.1.6c0 .4-.1.7-.2.9s-.3.4-.5.6c-.2.1-.5.3-.7.3s-.4.1-.6.1v.8h-.7v-.8c-.3 0-.5-.1-.7-.2-.3-.1-.5-.2-.7-.4s-.4-.4-.5-.7-.2-.6-.2-1v-.2h.7v.2c0 .5.1.9.4 1.1.2.2.5.4 1 .4z" />
        <path fill="black" d="m18.7 7.3v1.1l2.5 2v.1l-6.8 5.4 6.5 4.3.2.6h-.1l-9-5.3-9.1 5.4.2-.6 6.5-4.3-6.8-5.4v-.1l2.5-2v-1.2l-3.3 2.7v10.4c0 .9.7 1.6 1.6 1.6h16.9c.9 0 1.6-.7 1.6-1.6v-10.4z" />
      </svg>